<?xml version="1.0" encoding="iso-8859-1"?>
<!-- Generator: Adobe Illustrator 18.0.0, SVG Export Plug-In . SVG Version: 6.00 Build 0)  -->
<!DOCTYPE svg PUBLIC "-//W3C//DTD SVG 1.1//EN" "http://www.w3.org/Graphics/SVG/1.1/DTD/svg11.dtd">
<svg version="1.1" id="Capa_1" xmlns="http://www.w3.org/2000/svg" xmlns:xlink="http://www.w3.org/1999/xlink" x="0px" y="0px"
	 viewBox="0 0 416.242 416.242" style="enable-background:new 0 0 416.242 416.242;" xml:space="preserve">
<g>
	<circle cx="231.752" cy="270.893" r="4.451"/>
	<path d="M348.481,145.898c-1.249-3.613-2.832-7.036-4.707-10.174c-7.191-12.026-18.968-20.543-35.021-25.39
		C290.228,91.265,267.065,78,241.419,71.765c0.145-1.261,0.227-2.541,0.227-3.84c0-18.485-15.039-33.524-33.524-33.524
		s-33.524,15.039-33.524,33.524c0,1.303,0.083,2.586,0.228,3.851c-29.258,7.135-55.763,23.746-75.056,47.156
		c-20.624,25.025-31.982,56.7-31.982,89.189c0,0.896,0.018,1.793,0.036,2.688c-6.422,18.448-6.78,38.988-0.373,58.618
		c5.897,18.075,19.32,30.274,40.052,36.494c18.543,19.081,41.724,32.347,67.391,38.573c-0.189,1.439-0.297,2.903-0.297,4.393
		c0,18.485,15.039,33.524,33.524,33.524s33.524-15.039,33.524-33.524c0-1.491-0.108-2.956-0.297-4.396
		c29.26-7.123,55.77-23.721,75.077-47.124c20.655-25.038,32.03-56.732,32.03-89.246c0-0.904-0.019-1.799-0.036-2.695
		c2.204-6.346,3.708-12.967,4.443-19.76C354.333,172.197,352.819,158.445,348.481,145.898z M212.353,267.238
		c-6.47-6.469-12.494-13.492-17.904-20.872l-4.259-5.811c-2.187-2.981-4.626-5.824-7.252-8.45
		c-4.225-4.225-8.919-7.882-13.969-10.926c16.874-29.507,31.54-30.28,35.656-29.813c2.278,2.841,4.369,5.859,6.23,9.053
		c23.813,40.866,32.019,80.611,34.766,100.086L212.353,267.238z M73.742,228.325c1.576-10.366,5.17-20.319,10.639-29.289
		c3.567,9.771,11.002,23.918,25.696,32.293c-0.627,1.461-1.15,2.951-1.552,4.464C94.277,237.522,79.728,231.307,73.742,228.325z
		 M116.975,221.116c-0.55,0.55-1.072,1.126-1.581,1.713c-16.265-9.108-22.099-27.649-23.653-33.944
		c1.122-1.309,2.287-2.59,3.504-3.833c0.542-0.553,1.089-1.097,1.642-1.629c6.096-5.878,13.077-10.54,20.625-13.89
		c-1.829,10.293-3.006,27.838,3.726,48.019C119.724,218.614,118.291,219.8,116.975,221.116z M130.306,213.094
		c-7.031-22.264-3.39-40.966-1.696-47.422c5.796-1.492,11.811-2.276,17.938-2.276c4.352,0,8.656,0.395,12.871,1.143
		c-7.324,9.273-19.111,27.291-19.064,47.095c-0.154-0.002-0.309-0.012-0.463-0.012C136.63,211.622,133.396,212.132,130.306,213.094z
		 M173.907,134.108c0,0-0.028-0.153-0.102-0.433c-1.299-6.09-2.371-12.126-3.188-17.947l34.244,34.244
		c0.056,0.062,0.113,0.122,0.172,0.181l1.188,1.183c1.055,1.049,2.11,2.099,3.144,3.168c5.197,5.372,9.557,11.376,14.173,17.733
		c0.835,1.15,1.67,2.3,2.509,3.443c5.678,7.751,12.979,14.382,21.239,19.361c-5.336,9.339-10.889,16.608-16.583,21.695
		c-3.306-7.021-7.023-14.17-11.208-21.352c-9.003-15.45-22.583-27.405-38.422-34.54
		C178.259,152.053,175.835,143.058,173.907,134.108z M265.843,202.988c0.888,20.161-14.232,39.594-19.791,46.018
		c-0.936-0.314-1.87-0.642-2.797-0.995c-2.346-6.973-5.087-14.274-8.296-21.786c7.462-5.982,14.576-14.904,21.22-26.598
		C259.319,200.974,262.55,202.093,265.843,202.988z M150.4,213.258c-0.889-20.115,14.159-39.505,19.75-45.976
		c9.511,3.206,18.306,8.313,25.822,14.987c-9.322,2.502-22.47,10.693-35.913,34.348C156.932,215.276,153.706,214.154,150.4,213.258z
		 M275.887,204.608c3.404,0.045,6.801-0.44,10.054-1.448c7.036,22.292,3.375,41.01,1.684,47.438
		c-10.047,2.591-20.537,2.974-30.837,1.148C264.109,242.487,275.933,224.445,275.887,204.608z M295.006,198.695
		c2.152-1.517,4.116-3.298,5.838-5.284c16.27,9.109,22.104,27.655,23.657,33.947c-1.099,1.283-2.267,2.565-3.498,3.826
		c-0.472,0.48-0.944,0.953-1.408,1.409c-6.198,6.03-13.193,10.768-20.873,14.161C300.555,236.466,301.744,218.901,295.006,198.695z
		 M331.863,217.21c-3.567-9.771-11.002-23.921-25.697-32.296c0.619-1.447,1.131-2.935,1.533-4.462
		c14.239-1.736,28.785,4.47,34.784,7.458C340.909,198.37,337.296,208.307,331.863,217.21z M343.386,177.263
		c-7.764-3.46-20.935-8.021-34.678-6.962c-0.135-2.335-0.518-4.651-1.15-6.896c2.532-4.348,11.01-16.27,29.204-19.635
		c0.853,1.72,1.619,3.519,2.268,5.395C342.106,158.063,343.579,167.652,343.386,177.263z M330.786,134.846
		c-14.423,3.749-23.334,12.042-28.246,18.274c-0.318-0.436-1.305-1.71-1.305-1.71c-2.34-2.873-5.067-5.366-8.115-7.446
		c-0.265-4.034,0.333-14.225,10.904-24.599C315.546,122.549,324.51,127.739,330.786,134.846z M276.811,123.237h-41.005
		c1.918-1.221,3.914-2.32,5.995-3.261c4.097-1.853,8.426-3.115,12.866-3.751c4.614-0.661,9.565-0.698,14.354-0.734l0.174-0.001
		c8.699-0.068,16.443,0.438,23.492,1.507c-6.625,8.259-8.826,16.297-9.403,22.131c-1.4-0.452-2.826-0.829-4.279-1.117
		c-1.974-0.392-3.905-0.608-5.773-0.818c-1.32-0.148-2.567-0.288-3.782-0.482c-5.497-0.88-10.925-2.122-16.008-3.473h23.37
		c2.762,0,5-2.239,5-5S279.572,123.237,276.811,123.237z M208.121,44.4c12.972,0,23.524,10.553,23.524,23.524
		s-10.553,23.524-23.524,23.524c-12.971,0-23.524-10.553-23.524-23.524S195.15,44.4,208.121,44.4z M107.486,125.292
		c17.978-21.815,42.692-37.272,69.961-43.862c5.206,11.777,16.992,20.019,30.674,20.019c13.684,0,25.472-8.245,30.677-20.025
		c18.727,4.514,36.033,13.068,50.956,25.099c-6.357-0.738-13.184-1.088-20.634-1.032l-0.174,0.001
		c-5.12,0.038-10.415,0.077-15.699,0.835c-5.374,0.771-10.611,2.297-15.566,4.538c-5.69,2.573-10.906,6.032-15.503,10.283
		l-3.693,3.415c-1.267,1.171-1.84,2.913-1.517,4.608s1.497,3.104,3.106,3.726c4.633,1.794,9.66,3.557,15.82,5.547
		c8.631,2.789,20.064,6.234,31.974,8.141c1.447,0.232,2.872,0.392,4.249,0.546c1.738,0.195,3.38,0.379,4.94,0.689
		c3.134,0.622,6.114,1.766,8.87,3.405c2.896,1.714,5.437,3.901,7.499,6.433c0.093,0.118,0.356,0.431,0.356,0.431
		c1.598,1.976,2.832,4.165,3.675,6.521c1.233,3.419,1.61,7.139,1.091,10.754c-0.468,3.238-1.605,6.271-3.386,9.021
		c-0.981,1.522-2.162,2.92-3.495,4.167c-4.864-8.148-6.472-17.838-4.384-27.258c0.598-2.696-1.104-5.366-3.8-5.963
		c-2.695-0.603-5.365,1.103-5.964,3.799c-2.639,11.906-0.616,24.153,5.514,34.462c-2.331,0.729-4.767,1.061-7.202,1.009
		c-5.377-11.092-4.961-24.306,1.25-35.079c1.379-2.392,0.558-5.45-1.835-6.829c-2.396-1.38-5.45-0.557-6.829,1.834
		c-6.602,11.453-8.013,25.08-4.277,37.474c-2.417-0.847-4.782-1.844-7.085-2.98c-2.315-12.097,1.521-24.773,10.286-33.538
		c1.953-1.953,1.953-5.119,0-7.071c-1.951-1.952-5.119-1.952-7.07,0c-9.052,9.052-13.939,21.395-13.859,33.95
		c-4.666-3.606-8.833-7.858-12.301-12.592c-0.831-1.133-1.656-2.27-2.482-3.408c-4.616-6.358-9.391-12.932-15.076-18.81
		c-1.079-1.116-2.179-2.21-3.279-3.306l-0.101-0.101c-1.335-7.202-2.54-23.16,4.781-29.435c2.097-1.797,2.34-4.954,0.542-7.05
		c-1.796-2.097-4.954-2.34-7.05-0.542c-5.666,4.856-8.753,12.658-9.192,23.208c-1.26-4.327-1.84-10.898,2.082-18.35
		c1.286-2.443,0.348-5.467-2.096-6.753s-5.467-0.348-6.753,2.096c-2.832,5.381-3.974,10.459-4.16,14.976l-17.431-17.431
		c-1.942-1.942-4.727-2.765-7.444-2.202c-2.708,0.561-4.926,2.413-5.933,4.956c-0.815,2.056-0.543,3.975-0.38,5.121l0.054,0.397
		c0.152,1.242,0.315,2.483,0.487,3.723c0.119,0.858,0.257,1.731,0.387,2.598c-2.315-1.146-5.027-2.138-8.227-2.856
		c-2.698-0.605-5.369,1.09-5.974,3.784c-0.604,2.694,1.09,5.369,3.784,5.973c11.42,2.563,13.343,9.309,13.466,9.789
		c0.004,0.015,0.007,0.031,0.011,0.045c1.471,6.823,3.219,13.64,5.182,20.376c-7.327-2.07-14.976-3.169-22.76-3.169
		c-21.235,0-41.337,8.108-56.604,22.831c-0.621,0.6-1.236,1.209-1.844,1.831c-3.254,3.324-6.198,6.872-8.844,10.594
		C82.768,165.478,92.488,143.49,107.486,125.292z M72.835,238.971c6.984,3.115,18.36,7.131,30.592,7.131
		c1.348,0,2.708-0.065,4.072-0.169c0.134,2.336,0.528,4.655,1.168,6.919c-2.536,4.311-11.075,16.259-29.193,19.62
		c-0.977-1.949-1.816-3.998-2.518-6.147C74.01,257.297,72.665,248.056,72.835,238.971z M85.502,281.383
		c14.393-3.754,23.29-12.033,28.197-18.257c0.323,0.442,1.312,1.709,1.312,1.709c2.34,2.873,5.084,5.366,8.109,7.432
		c0.267,4.021-0.322,14.198-10.861,24.568C100.737,293.633,91.798,288.478,85.502,281.383z M139.431,293.005h41.023
		c-6.907,4.396-14.87,6.985-23.097,7.422c-4.181,0.222-8.053,0.331-11.837,0.331c-7.98,0-15.293-0.517-21.949-1.533
		c6.618-8.258,8.814-16.294,9.389-22.124c2.62,0.852,5.333,1.431,8.094,1.692c6.618,0.621,14.262,2.266,21.607,4.212h-23.229
		c-2.761,0-5,2.239-5,5S136.67,293.005,139.431,293.005z M208.121,372.41c-12.971,0-23.524-10.553-23.524-23.524
		s10.553-23.524,23.524-23.524c12.972,0,23.524,10.553,23.524,23.524S221.093,372.41,208.121,372.41z M308.711,291.002
		c-18.026,21.852-42.809,37.315-70.146,43.872c-5.317-11.506-16.96-19.512-30.444-19.512c-13.483,0-25.125,8.005-30.443,19.509
		c-18.816-4.499-36.202-13.07-51.187-25.151c5.929,0.69,12.272,1.037,19.029,1.037c3.962,0,8.008-0.113,12.367-0.344
		c13.429-0.714,26.277-6.155,36.178-15.323l3.69-3.417c1.264-1.171,1.836-2.91,1.515-4.603c-0.322-1.693-1.494-3.101-3.1-3.725
		c-1.304-0.507-32.187-12.445-54.181-14.509c-7.451-0.703-14.458-4.463-19.198-10.282c-0.083-0.103-0.341-0.41-0.341-0.41
		c-6.123-7.534-6.678-18.093-1.38-26.278c0.854-1.32,1.854-2.558,2.975-3.678c0.17-0.17,0.359-0.319,0.535-0.484
		c4.859,8.145,6.464,17.83,4.376,27.244c-0.598,2.696,1.103,5.366,3.799,5.964c0.365,0.081,0.729,0.12,1.087,0.12
		c2.292,0,4.359-1.587,4.876-3.918c2.639-11.901,0.619-24.144-5.506-34.452c2.152-0.676,4.405-1.039,6.678-1.039
		c0.171,0,0.343,0.01,0.515,0.014c5.38,11.093,4.965,24.31-1.247,35.086c-1.379,2.392-0.558,5.45,1.834,6.829
		c0.787,0.454,1.645,0.669,2.492,0.669c1.729,0,3.411-0.898,4.336-2.504c6.602-11.452,8.013-25.077,4.279-37.469
		c2.424,0.848,4.789,1.836,7.083,2.969c2.317,12.099-1.519,24.777-10.286,33.544c-1.953,1.953-1.953,5.119,0,7.071
		c0.977,0.976,2.256,1.464,3.536,1.464c1.279,0,2.559-0.488,3.536-1.464c9.053-9.053,13.942-21.4,13.859-33.958
		c2.111,1.634,4.132,3.398,6.037,5.304c2.267,2.268,4.374,4.721,6.26,7.293l4.258,5.809c5.084,6.936,10.685,13.57,16.671,19.761
		c1.327,7.189,2.537,23.232-4.767,29.493c-2.097,1.797-2.339,4.954-0.542,7.05c0.989,1.154,2.39,1.746,3.799,1.746
		c1.151,0,2.309-0.396,3.251-1.204c5.663-4.854,8.75-12.651,9.191-23.193c1.262,4.335,1.835,10.895-2.081,18.336
		c-1.286,2.444-0.348,5.467,2.096,6.753c0.743,0.391,1.54,0.576,2.325,0.576c1.797,0,3.533-0.972,4.429-2.672
		c2.836-5.389,3.968-10.469,4.152-14.99l17.444,17.444c1.549,1.549,3.59,2.402,5.747,2.402c2.343,0,4.582-1.005,6.145-2.756
		c1.555-1.744,2.263-3.999,1.993-6.352c-0.252-2.194-0.595-4.843-1.054-7.882c2.313,1.145,5.024,2.136,8.221,2.854
		c0.368,0.083,0.736,0.123,1.1,0.123c2.288,0,4.352-1.581,4.874-3.906c0.604-2.694-1.09-5.369-3.784-5.973
		c-11.592-2.602-13.4-9.518-13.472-9.811l0.022,0.104l-0.022,0.004c-1.332-6.178-3.031-13.055-5.186-20.451
		c7.459,2.093,15.081,3.148,22.676,3.148c7.92,0,15.808-1.138,23.438-3.412c12.647-3.745,23.924-10.376,33.533-19.726
		c0.524-0.514,1.038-1.028,1.563-1.563c2.046-2.095,3.95-4.24,5.646-6.358c1.112-1.377,2.168-2.792,3.191-4.228
		C333.469,250.788,323.734,272.792,308.711,291.002z"/>
	<path d="M181.342,142.202c-1.715,1.715-1.715,4.58,0,6.295c1.715,1.715,4.58,1.715,6.295,0c1.715-1.715,1.715-4.58,0-6.295
		C185.922,140.486,183.057,140.487,181.342,142.202z"/>
	<path d="M208.121,0C93.363,0,0,93.363,0,208.121s93.363,208.121,208.121,208.121c114.759,0,208.121-93.362,208.121-208.121
		S322.88,0,208.121,0z M208.121,406.242C98.877,406.242,10,317.365,10,208.121S98.877,10,208.121,10s198.121,88.876,198.121,198.121
		S317.365,406.242,208.121,406.242z"/>
	<path d="M208.121,57.796c5.585,0,10.128,4.543,10.128,10.128c0,2.761,2.238,5,5,5s5-2.239,5-5c0-11.099-9.029-20.128-20.128-20.128
		c-2.761,0-5,2.239-5,5S205.36,57.796,208.121,57.796z"/>
	<path d="M208.121,329.31c-2.761,0-5,2.239-5,5s2.239,5,5,5c5.585,0,10.128,4.543,10.128,10.128c0,2.761,2.238,5,5,5s5-2.239,5-5
		C228.249,338.34,219.22,329.31,208.121,329.31z"/>
</g>
<g>
</g>
<g>
</g>
<g>
</g>
<g>
</g>
<g>
</g>
<g>
</g>
<g>
</g>
<g>
</g>
<g>
</g>
<g>
</g>
<g>
</g>
<g>
</g>
<g>
</g>
<g>
</g>
<g>
</g>
</svg>
